# xmcd
#
# Track frame offsets:
#	150
#	20963
#	36605
#	49454
#	59257
#	68696
#	80764
#	91444
#	103978
#	124385
#	136828
#	146198
#	155104
#	168281
#	177191
#	189266
#	200310
#	212604
#
# Disc length: 3081 seconds
#
# Revision: 1
# Processed by: cddbd v1.5.2PL0 Copyright (c) Steve Scherf et al.
# Submitted via: FairStars CD Ripper 1.90
#
DISCID=170c0712
DTITLE=Various Artist - Ultimate Country Christmas
DYEAR=2007
DGENRE=Christmas
TTITLE0=Vince Gill and Patrick Williams - O Holy Night
TTITLE1=Reba McIntire - The Christmas song (Chestnuts roasting on an open fire)
TTITLE2=Sammy Kershaw - Please Come Home for Christmas
TTITLE3=Bobby Helms and The Anita Kerr Singers - Jingle Bell Rock
TTITLE4=Brenda Lee - Rockin' around the Christmas Tree
TTITLE5=Bill Monroe and The Bluegrass Boys - Footprints in the Snow
TTITLE6=The Statler Boys - White Christmas
TTITLE7=Ernest Tubb - Blue Christmas
TTITLE8=Lee Ann Womack - What are you Doing New Year's Eve?
TTITLE9=Oak Ridge Boys - Silver Bells
TTITLE10=Bill Anderson - Santa Claus is Coming to Town
TTITLE11=Roger Miller - Silent Night
TTITLE12=Steve Wariner - The Most Wonderful Time of the Year
TTITLE13=Loretta Lynn - Frosty the Snowman
TTITLE14=Trisha Yearwood - Awway in a Manger
TTITLE15=Patti Page - Jingle Bells
TTITLE16=Connie Francis - Winter Wonderland
TTITLE17=Kathy Mattea - There's a New Kid in Town
EXTD=
EXTT0=
EXTT1=
EXTT2=
EXTT3=
EXTT4=
EXTT5=
EXTT6=
EXTT7=
EXTT8=
EXTT9=
EXTT10=
EXTT11=
EXTT12=
EXTT13=
EXTT14=
EXTT15=
EXTT16=
EXTT17=
PLAYORDER=
